<?xml version="1.0" encoding="UTF-8" standalone="no"?>
<svg
   xmlns:dc="http://purl.org/dc/elements/1.1/"
   xmlns:cc="http://creativecommons.org/ns#"
   xmlns:rdf="http://www.w3.org/1999/02/22-rdf-syntax-ns#"
   xmlns:svg="http://www.w3.org/2000/svg"
   xmlns="http://www.w3.org/2000/svg"
   xmlns:sodipodi="http://sodipodi.sourceforge.net/DTD/sodipodi-0.dtd"
   xmlns:inkscape="http://www.inkscape.org/namespaces/inkscape"
   viewBox="0 0 150 150"
   height="150"
   width="150"
   id="svg885"
   version="1.1"
   sodipodi:docname="Logo.svg"
   inkscape:version="0.92.4 (unknown)">
  <sodipodi:namedview
     pagecolor="#ffffff"
     bordercolor="#666666"
     borderopacity="1"
     objecttolerance="10"
     gridtolerance="10"
     guidetolerance="10"
     inkscape:pageopacity="0"
     inkscape:pageshadow="2"
     inkscape:window-width="1920"
     inkscape:window-height="1011"
     id="namedview9"
     showgrid="false"
     inkscape:zoom="3.2834782"
     inkscape:cx="25.414868"
     inkscape:cy="58.94996"
     inkscape:window-x="0"
     inkscape:window-y="0"
     inkscape:window-maximized="1"
     inkscape:current-layer="svg885" />
  <metadata
     id="metadata891">
    <rdf:RDF>
      <cc:Work
         rdf:about="">
        <dc:format>image/svg+xml</dc:format>
        <dc:type
           rdf:resource="http://purl.org/dc/dcmitype/StillImage" />
        <dc:title></dc:title>
      </cc:Work>
    </rdf:RDF>
  </metadata>
  <defs
     id="defs889" />
  <g
     id="g826"
     transform="matrix(0.04099656,0,0,0.04099656,26.608043,117.63004)">
    <path
       sodipodi:nodetypes="cccccccc"
       inkscape:connector-curvature="0"
       id="path4522"
       d="m 489.72458,-479.1822 c 389.62618,-62.0888 754.23032,-383.432 1220.65682,-599.3644 70.1399,-170.8779 281.74,-351.7366 465.3601,-97.4576 -52.732,45.4815 -79.5108,-9.0225 -160.4549,91.4826 -50.8744,225.815 -161.5582,542.9577 -270.7951,610.2123 -154.3532,99.7302 -404.2493,89.4946 -710.3244,94.3987 -197.79909,59.4811 -280.98562,183.4318 -378.96843,299.0596 -209.31354,-97.3799 -292.676,-294.287 -165.47409,-398.3312 z"
       style="fill:#ffffff;stroke:none;stroke-width:1px;stroke-linecap:butt;stroke-linejoin:miter;stroke-opacity:1" />
    <path
       id="path901"
       d="m 855.86512,-609.87343 c 1.03612,-0.91551 0.16146,-4.61184 -3.15376,-13.32881 -8.1598,-21.45517 -11.44475,-38.93819 -13.27637,-70.66026 -0.90342,-15.55709 -2.15824,-28.25604 -2.80008,-28.21918 -0.64175,0.0369 -7.37462,1.91536 -14.96188,4.17447 -43.45634,12.93935 -83.56617,16.14592 -116.5507,9.31778 -44.52092,-9.21626 -74.2204,-33.39489 -92.97558,-75.69248 -17.26746,-38.94226 -17.92049,-86.41371 -1.852,-134.61744 5.63457,-16.90305 9.4845,-25.80903 18.9496,-43.83494 8.58973,-16.35878 9.97899,-13.23188 -11.21828,-25.25136 -16.1268,-9.14445 -43.02495,-32.77675 -56.0033,-49.20385 -20.38986,-25.8076 -31.44092,-46.7257 -54.61211,-103.372 -43.87187,-107.2532 -85.12564,-200.4221 -101.78549,-229.8757 l -4.0241,-7.1143 -31.49642,-13.5702 c -42.40008,-18.2678 -60.90808,-28.6014 -84.1269,-46.9702 -14.66184,-11.5993 -28.00538,-31.539 -30.77219,-45.9838 -5.62435,-29.3639 19.61257,-63.8764 49.21275,-67.3004 10.55596,-1.221 23.95022,1.5528 33.51009,6.9398 25.82696,14.5533 55.14823,49.8078 86.19204,103.6333 7.64227,13.2507 14.64774,23.8738 16.39571,24.8627 3.85261,2.1797 30.24406,10.9468 60.19343,19.9959 65.40171,19.7607 134.56867,36.7038 191.67386,46.9521 32.70552,5.8696 114.39421,17.5302 115.34399,16.4648 411.29567,109.9931 528.73827,177.497 847.20947,464.61981 47.8639,43.15252 -571.532,550.00077 -799.07178,258.03426 z"
       style="fill:#8fd1e2;stroke-width:1.33333337"
       inkscape:connector-curvature="0" />
    <path
       id="path899"
       d="m 803.70986,-1332.0263 4.67074,-0.064 0.21645,-13.3677 c 0.89132,-55.0289 26.01051,-103.9822 75.38022,-146.9038 6.64339,-5.7757 12.21427,-11.5139 12.37969,-12.7514 0.16543,-1.2374 -1.60608,-4.7118 -3.93664,-7.721 -5.48895,-7.087 -16.95956,-27.0381 -21.72807,-37.7924 -5.71631,-12.8916 -11.88353,-36.1937 -14.6916,-55.51 -2.64152,-18.1707 -2.84651,-33.8364 -0.98443,-75.2018 1.63438,-36.3059 2.05117,-47.5037 2.91439,-78.2959 1.89789,-67.6985 1.96453,-105.6642 0.23824,-135.7248 l -1.215,-21.1572 -8.9473,-9.1621 c -42.5553,-43.5773 -65.5602,-77.6062 -72.59833,-107.3878 -5.72634,-24.2309 4.3354,-45.9953 27.28503,-59.0197 9.40981,-5.3403 10.08441,-5.5148 24.38612,-6.3069 13.42215,-0.7434 15.40839,-0.5224 22.70881,2.5266 29.40364,12.2805 45.33906,49.2143 53.47944,123.9501 1.66973,15.3295 3.41916,29.7428 3.88764,32.0296 1.51512,7.396 72.28739,67.138 132.50544,111.8538 37.2232,27.6406 55.4875,39.9361 115.3067,77.6241 54.3911,34.2681 129.3367,82.8318 151.8928,98.4243 102.5716,70.9056 161.1875,126.2866 227.3208,214.7758 20.737,27.7469 25.1163,34.0923 42.9985,62.304 41.6227,65.6647 88.7619,155.0528 125.0979,237.2179 5.7023,12.8943 11.3289,24.7919 12.5036,26.4389 2.0822,2.9198 2.2004,2.9297 4.7141,0.3971 -214.9681,302.18885 -194.3007,-58.6181 -915.78524,-221.1761 z"
       style="fill:#fc7109;stroke-width:1.33333337"
       inkscape:connector-curvature="0" />
    <path
       id="path897"
       d="m 655.19865,-80.851235 c -22.18845,-1.650895 -55.53936,-16.781089 -83.64664,-37.947945 -30.85055,-23.23297 -60.13498,-53.97919 -84.89808,-89.13669 -27.03397,-38.38131 -45.30538,-75.20603 -55.11805,-111.08677 -4.03379,-14.74989 -4.64596,-19.16746 -5.96757,-43.06199 -1.24454,-22.50887 -1.13104,-28.81405 0.73712,-40.77603 4.37846,-28.03544 13.43651,-47.77013 30.85576,-67.22512 18.58013,-20.75138 20.08614,-21.58629 53.77519,-29.8115 78.88817,-19.26115 172.63425,-46.78322 238.37974,-69.98394 26.50387,-9.35292 68.85835,-25.05934 87.61465,-32.49051 l 18.93435,-7.5017 -0.44228,-4.62665 c -0.24329,-2.54464 -2.28019,-9.65826 -4.52655,-15.80788 -7.86558,-21.53297 -9.84839,-32.44554 -11.85642,-65.25278 -1.39944,-22.86908 -2.28419,-30.61159 -3.53559,-30.9506 -0.91785,-0.24839 -4.77405,0.62624 -8.56936,1.9437 -9.77492,3.3935 -32.56461,9.1144 -45.74172,11.48248 -14.17039,2.54671 -45.653,4.34805 -57.94018,3.31431 -31.28062,-2.62963 -57.09815,-12.52743 -76.96798,-29.50807 -11.6054,-9.91785 -18.5512,-18.37514 -26.77387,-32.59991 -12.79478,-22.13465 -19.21526,-44.03867 -20.74346,-70.76853 -2.26525,-39.63752 7.48431,-78.72318 30.52781,-122.37372 3.87811,-7.34603 6.68271,-14.17325 6.23233,-15.17147 -0.45027,-0.99823 -3.41672,-3.06295 -6.59209,-4.58821 -11.5444,-5.54505 -28.93525,-17.60874 -42.06711,-29.18084 -27.47659,-24.2131 -47.62512,-53.2923 -65.26284,-94.1906 -7.37473,-17.1002 -10.41249,-24.3939 -38.29953,-91.9554 -18.65867,-45.2042 -42.26395,-99.0595 -56.01928,-127.8076 -4.75236,-9.9322 -10.96709,-22.9406 -13.81057,-28.9076 -11.50102,-24.1347 -11.52951,-24.1703 -23.24448,-28.9705 -79.51756,-32.5811 -113.39255,-54.7688 -129.77552,-84.9998 -4.26178,-7.8641 -4.80219,-9.9732 -5.4758,-21.3698 -0.68566,-11.6084 -0.42367,-13.4527 3.20131,-22.5032 4.64827,-11.6055 17.48372,-26.544 26.9998,-31.4238 25.80623,-13.2335 53.54865,-2.8297 83.92836,31.4745 5.94012,6.7074 13.41617,15.8881 16.61359,20.4014 3.19733,4.5134 8.66887,12.2549 12.15882,17.2034 3.49005,4.9485 12.93049,20.1007 20.97888,33.6715 8.04839,13.5708 15.74172,25.5671 17.09632,26.6586 2.92083,2.3533 38.20576,14.041 74.41338,24.6488 58.38521,17.1049 119.42757,32.0852 169.41154,41.5745 27.55858,5.2319 116.15608,18.3618 123.24992,18.2652 l 4.67073,-0.064 0.21645,-13.3677 c 0.89132,-55.0289 26.01052,-103.9823 75.38022,-146.9039 6.64339,-5.7757 12.21427,-11.5138 12.3797,-12.7513 0.16542,-1.2375 -1.6061,-4.712 -3.93664,-7.721 -5.48895,-7.0871 -16.95957,-27.0382 -21.72808,-37.7925 -5.71631,-12.8915 -11.88353,-36.1937 -14.6916,-55.51 -2.64151,-18.1706 -2.8465,-33.8363 -0.98443,-75.2018 1.63438,-36.3058 2.05117,-47.5036 2.91439,-78.2959 1.8979,-67.6984 1.96453,-105.6642 0.23824,-135.7248 l -1.21499,-21.1572 -8.94731,-9.1621 c -42.55529,-43.5773 -65.56019,-77.6061 -72.59833,-107.3877 -5.72634,-24.231 4.33541,-45.9953 27.28503,-59.0198 9.40981,-5.3402 10.08441,-5.5147 24.38612,-6.3069 13.42086,-0.7433 15.40891,-0.5222 22.70563,2.5254 30.85212,12.8856 46.07604,50.9509 55.36134,138.4234 l 2.24276,21.1289 27.37197,23.914 c 44.69909,39.0521 102.96555,84.4633 148.78285,115.9569 9.9414,6.8335 42.082,27.5496 71.4235,46.0356 155.1067,97.7223 214.9596,140.1234 272.909,193.3351 53.1584,48.8122 108.5915,116.7386 151.8159,186.0312 42.2803,67.7794 87.0561,153.0156 122.5851,233.3558 5.7023,12.8942 11.3289,24.7918 12.5036,26.4389 2.0822,2.9197 2.2003,2.9297 4.7141,0.3971 1.418,-1.4288 10.3081,-13.8594 19.7559,-27.6237 52.4604,-76.4292 75.9282,-103.9914 110.9111,-130.2616 15.1133,-11.3492 28.8526,-18.9446 47.4712,-26.2429 21.885,-8.5788 32.5243,-10.6938 61.4012,-12.2056 21.1193,-1.1057 27.0685,-0.9284 41.7047,1.243 59.4962,8.8268 107.4294,38.4748 147.0032,90.9253 10.921,14.4745 27.2828,41.0108 27.4879,44.5809 0.1309,2.2791 -12.6084,7.8124 -63.8484,27.7327 -35.5194,13.8087 -50.4025,21.103 -63.4309,31.088 -7.9556,6.0971 -23.2067,23.5973 -29.2572,33.5714 -9.4617,15.5971 -16.6008,40.1798 -32.8307,113.04853 -31.1402,139.81242 -49.7773,203.63451 -80.1228,274.37826 -20.0373,46.71262 -39.3844,82.48679 -63.7184,117.82014 -13.4749,19.56553 -44.0008,55.18976 -61.0887,71.29143 -65.1398,61.37979 -142.1935,95.62972 -257.0138,114.24117 -18.4812,2.9955 -34.6516,4.35834 -87.2479,7.35314 -68.0489,3.8748 -67.6898,3.8722 -171.548,1.17632 -108.9285,-2.8277 -150.3057,-2.41435 -194.0729,1.93889 -41.695,4.1472 -60.0052,8.32895 -93.72879,21.40552 -76.78329,29.77366 -141.83143,74.3166 -206.45775,141.3759 -31.84045,33.03924 -70.38857,83.14491 -91.67619,119.162633 -6.29492,10.650823 -10.80308,15.327981 -14.34295,14.880595 -0.50681,-0.06405 -4.5428,-0.385885 -8.96895,-0.715064 z m 15.2842,-38.542475 c 60.39531,-92.29894 139.4164,-169.35958 222.89808,-217.36796 37.27823,-21.43782 81.71492,-40.68004 112.26717,-48.61463 29.3782,-7.62958 46.2178,-9.86351 94.7695,-12.57206 45.99,-2.56595 77.1482,-2.54098 168.9419,0.13435 17.2964,0.50408 38.9692,1.07086 48.1618,1.25963 9.1927,0.18877 25.7409,0.55523 36.7739,0.8146 12.0077,0.28233 45.173,-0.97819 82.6225,-3.14012 55.9401,-3.22951 65.3624,-4.08943 89.0139,-8.12596 49.2957,-8.41299 83.7046,-17.47655 117.7488,-31.01556 63.1101,-25.09835 103.8442,-53.80245 149.5378,-105.37492 28.0663,-31.67691 49.26,-62.52955 68.4098,-99.58671 39.4173,-76.27746 64.7359,-151.40651 93.1323,-276.35738 19.249,-84.69977 22.9173,-100.15947 28.8212,-121.46377 9.9658,-35.9617 17.4329,-50.4168 36.7214,-71.0868 20.9954,-22.499 33.963,-29.6244 99.2234,-54.5207 13.7417,-5.2424 25.7273,-10.5383 26.6347,-11.7689 2.0458,-2.7745 -1.1575,-8.5047 -14.7708,-26.4224 -34.2479,-45.0773 -74.6019,-71.6349 -123.289,-81.1384 -58.6456,-11.4473 -112.5277,2.2221 -157.7221,40.0126 -15.1364,12.6568 -40.3743,40.1812 -57.3638,62.561 -5.8305,7.6803 -20.7632,28.6709 -33.1839,46.6459 -45.1646,65.3619 -61.5171,85.1342 -84.9259,102.6866 -8.5222,6.3903 -64.8185,38.96734 -80.1396,46.37472 -6.9476,3.35895 -9.0617,4.99875 -8.9501,6.94195 0.045,0.7924 15.7834,15.59094 34.9731,32.8856 19.1897,17.29465 40.5274,36.69522 47.417,43.11257 l 12.5267,11.66751 -0.011,14.32429 -0.011,14.32418 -19.1902,21.13499 c -64.7584,71.32088 -147.3787,145.71959 -227.6544,205.00101 -137.1529,101.28322 -248.6892,149.6823 -349.2197,151.53712 -56.1888,1.03675 -100.84152,-10.7618 -147.13774,-38.87787 -18.63208,-11.31529 -47.24399,-37.13917 -59.78198,-53.9562 -7.21848,-9.68227 -10.51521,-13.08535 -12.56234,-12.96779 -1.52648,0.0877 -14.27169,4.68994 -28.32274,10.22713 -97.00817,38.22941 -214.53922,75.37717 -315.55006,99.73515 -14.4902,3.49421 -28.68049,7.55926 -31.53396,9.03338 -6.98937,3.61096 -19.31783,16.47844 -26.98153,28.16124 -11.55932,17.62161 -16.44462,35.26662 -17.88531,64.59867 -1.88382,38.35479 10.61234,81.74733 36.32763,126.14613 26.66186,46.03313 59.16501,84.75093 95.05714,113.23199 24.98488,19.82606 44.37599,31.01382 64.46728,37.1943 16.94167,5.211664 15.91183,5.744584 29.74006,-15.38848 z m 466.70765,-417.23374 c 100.4429,-20.37637 207.5659,-81.55503 347.8526,-198.66135 41.5013,-34.64386 117.1794,-106.73746 141.6969,-134.98578 5.2627,-6.0634 5.4136,-6.48865 3.304,-9.30774 -6.4258,-8.58671 -91.9051,-82.55734 -142.3377,-123.17378 -152.4111,-122.7459 -270.4871,-190.6688 -395.595,-227.5653 -45.1937,-13.3283 -113.08795,-28.0605 -182.66901,-39.6369 -18.1699,-3.0229 -38.19595,-6.3913 -44.50236,-7.4855 -6.30649,-1.094 -17.52757,-2.8839 -24.93575,-3.9775 -7.40819,-1.0936 -29.53269,-4.3746 -49.16559,-7.2911 -19.63281,-2.9166 -45.99613,-6.7531 -58.58516,-8.5256 -60.35034,-8.4973 -172.34439,-33.8831 -242.66706,-55.0054 -24.96498,-7.4987 -25.94237,-7.2577 -19.86536,4.8962 14.97493,29.9498 50.73769,112.9975 84.93392,197.2321 7.72218,19.022 16.97711,40.0327 20.56652,46.6906 15.06552,27.9445 34.29625,51.4512 54.45822,66.5667 9.44375,7.08 28.08825,17.0453 31.5219,16.8481 1.24624,-0.072 9.48086,-7.5059 18.29902,-16.5207 32.44276,-33.1662 62.15202,-51.3952 89.13172,-54.6895 19.60251,-2.3936 34.52448,2.133 47.73359,14.48 7.86016,7.3472 12.39867,14.8026 15.10648,24.8155 4.05146,14.9809 -1.91731,33.6099 -15.40913,48.0932 -25.25518,27.11145 -71.89154,42.22579 -120.42252,39.02774 -15.53645,-1.02374 -15.00267,-1.36721 -23.9472,15.40639 -21.67082,40.63889 -31.03387,82.64028 -25.68757,115.23097 5.77851,35.22615 24.31625,63.01224 48.48493,72.67388 32.91278,13.15737 86.14355,8.79003 137.9891,-11.32119 l 14.11148,-5.47395 5.81018,-16.35852 c 11.32757,-31.8922 26.07407,-58.0004 44.7045,-79.14761 13.73381,-15.58934 25.50312,-25.02643 39.11925,-31.36771 9.383,-4.36984 12.07992,-5.01902 23.88542,-5.74836 12.63522,-0.7807 13.82685,-0.60693 23.56903,3.43547 12.28794,5.09869 21.34225,12.61605 26.00145,21.58738 9.9982,19.25235 5.7553,37.52486 -14.37203,61.8938 -18.1318,21.95305 -42.70817,40.8734 -81.04571,62.39388 l -26.84567,15.06962 -1.57406,6.76808 c -4.42129,19.00995 -3.77139,54.89402 1.37945,76.1711 12.47207,51.51959 48.68752,92.00065 103.11744,115.26311 23.51178,10.04854 53.19298,16.65851 79.75708,17.76173 14.4908,0.6018 50.1073,-2.61628 67.0927,-6.06206 z M 941.92188,-832.5182 c 22.25711,-16.48107 29.03856,-27.07539 21.85823,-34.14856 -6.07317,-5.98235 -18.11396,0.82037 -30.31308,17.126 -9.67325,12.92926 -22.20625,34.06237 -21.12037,35.61286 1.03297,1.4751 10.59162,-4.5333 29.57522,-18.5903 z m 641.80932,-170.4144 c 6.2874,-2.965 25.4931,-13.2975 42.6795,-22.9611 36.58,-20.5683 52.4274,-32.487 52.0452,-39.1424 -0.457,-7.9577 -43.2542,-102.5662 -65.3777,-144.5255 -2.0674,-3.9213 -5.9611,-11.5106 -8.6522,-16.8651 -9.2985,-18.5004 -26.5468,-50.003 -43.2453,-78.9838 -14.6484,-25.4232 -22.0407,-37.3145 -44.2462,-71.1743 -8.1302,-12.3973 -43.4149,-58.9122 -55.7686,-73.5183 -70.1822,-82.9786 -133.6082,-133.0758 -307.5787,-242.9421 -66.6403,-42.0848 -84.1498,-53.4795 -106.4555,-69.2784 -44.8703,-31.7812 -70.31802,-50.7804 -97.23941,-72.5987 -18.36346,-14.8827 -37.06976,-28.9014 -38.45897,-28.8216 -1.53797,0.088 -1.89616,6.1389 -2.063,34.8423 -0.2785,47.9423 -1.48813,92.677 -3.50849,129.7479 -1.74083,31.944 -1.79544,43.2933 -0.33394,69.4667 1.84631,33.0575 2.78003,38.2742 10.17728,56.8341 6.50213,16.3142 20.66402,38.0242 25.66788,39.3485 1.29864,0.3437 8.96994,-2.121 17.04731,-5.4772 26.12972,-10.8571 58.98894,-18.3628 76.00484,-17.3612 11.0765,0.6519 26.7906,4.1957 34.2773,7.7301 9.2199,4.3525 19.9563,14.9615 25.5714,25.2679 4.316,7.9217 4.8384,9.9525 5.5045,21.3977 0.8769,15.0609 -1.2049,21.7686 -10.048,32.3822 -11.7429,14.0937 -29.6299,21.2273 -56.8949,22.6903 -28.4184,1.5249 -51.44084,-3.2743 -81.64029,-17.0183 -8.25672,-3.7577 -14.00294,-5.6234 -15.44064,-5.0135 -6.09261,2.5851 -26.62458,20.3953 -37.85485,32.8368 -18.67608,20.6904 -28.85104,38.1129 -34.72816,59.4647 -5.53145,20.0959 -5.79824,45.4332 -0.54467,51.7215 1.7773,2.1274 7.09906,3.1986 62.4123,12.5624 31.20864,5.2833 41.51971,7.1934 82.22551,15.2321 10.3369,2.0412 20.1996,3.6306 21.9174,3.532 1.7177,-0.099 7.8751,-3.6738 13.6832,-7.9449 27.0398,-19.884 47.6467,-29.619 72.9994,-34.4859 31.0057,-5.9523 59.2086,10.2997 66.9274,38.5671 3.3959,12.436 -0.3607,26.7467 -9.947,37.8921 -2.7626,3.212 -4.5927,6.4541 -4.067,7.2048 0.5257,0.7507 15.7249,7.8139 33.7758,15.6962 18.0509,7.8822 37.0016,16.4952 42.1128,19.14 5.1111,2.645 15.1764,7.8407 22.3673,11.5462 47.3105,24.3787 108.3796,62.7263 159.1437,99.9321 10.2234,7.4929 22.7956,16.6872 27.9381,20.4319 13.39,9.7499 59.6979,46.2086 87.5562,68.9338 17.594,14.3521 24.7096,19.38775 27.2237,19.26641 1.872,-0.0905 8.5479,-2.59053 14.8355,-5.55551 z m -828.92373,-13.7118 c 13.94504,-4.9589 20.23416,-8.5087 26.71999,-15.0816 5.98016,-6.0607 7.33989,-11.9755 3.59982,-15.6596 -3.86249,-3.8047 -15.07294,-2.0222 -25.93781,4.1243 -17.08584,9.6657 -41.5692,29.55 -39.68942,32.2341 1.56085,2.2289 22.70149,-1.1345 35.30742,-5.6172 z m 372.93973,-265.8851 c 3.8108,-1.552 4.5309,-2.4996 4.346,-5.7196 -0.1829,-3.1838 -0.8427,-3.8955 -3.7686,-4.0651 -5.6959,-0.3302 -25.5014,10.6351 -23.7433,13.1455 1.0184,1.4541 17.0563,-0.8726 23.1659,-3.3608 z m -768.31517,-170.5913 c -1.12086,-1.57 -5.76064,-8.6506 -10.31078,-15.7348 -10.88986,-16.9546 -14.01215,-21.2114 -22.13955,-30.1841 -10.62735,-11.7328 -18.1285,-13.819 -25.30755,-7.0383 -7.33667,6.9297 -3.68574,18.6792 9.16229,29.4861 10.76947,9.0587 37.25138,25.4272 45.31208,28.0076 4.08642,1.3082 5.78284,-1.0355 3.28351,-4.5365 z m 680.05257,-44.0586 c 5.5707,-1.8975 7.9381,-4.5682 6.6265,-7.4755 -1.247,-2.7644 -5.28,-3.6729 -14.118,-3.1807 -7.74,0.4314 -25.9198,5.428 -26.9987,7.4208 -0.5452,1.0072 7.0808,3.215 16.3574,4.7359 5.0136,0.8218 13.337,0.133 18.1328,-1.5005 z m -197.8911,-526.4413 c -3.92356,-15.3038 -9.83385,-25.8608 -14.33353,-25.6024 -3.10788,0.1785 -3.26534,0.597 -2.82362,7.5076 0.52159,8.1582 5.07421,17.7989 12.81021,27.1266 6.78543,8.1816 8.07379,5.5048 4.34694,-9.0318 z"
       style="fill:#100a0b;stroke-width:1.33333337"
       inkscape:connector-curvature="0" />
  </g>
</svg>
